<?xml version="1.0" encoding="utf-8"?>
<svg viewBox="1988.2418 1371.9714 2138.3779 3046.5164" xmlns="http://www.w3.org/2000/svg">
  <defs>
    <style type="text/css">.str2 { stroke-width: 18.19; stroke-linecap: round; stroke-linejoin: round; stroke-miterlimit: 2.61313; }.str1 { stroke: white; stroke-width: 27.78; stroke-miterlimit: 10; }.str0 { stroke: white; stroke-width: 6.94; stroke-linecap: round; stroke-linejoin: round; stroke-miterlimit: 2.61313; }.str3 { stroke: white; stroke-width: 3; stroke-linecap: round; stroke-linejoin: round; stroke-miterlimit: 2.61313; }.fil2 { fill: none; }.fil1 { fill: black; }.fil0 { fill: rgb(192, 160, 85); }.fnt0 { font-weight: normal; font-size: 164.9px; font-family: Arial; }</style>
  </defs>
  <path class="fil0" d="M 4425.48 5135.34 C 4705.219999999999 5432.97 5404.459999999999 5854.57 4889.32 6107.88 C 4839.799999999999 6112.51 4785.259999999999 6095.900000000001 4743.53 6073.27 C 4701.59 6050.650000000001 4667.79 6016.27 4638.3099999999995 5981.570000000001 C 4622.389999999999 5962.7300000000005 4597.459999999999 5909.9400000000005 4566.83 5909.790000000001 C 4529.09 5909.77 4516.0199999999995 5947.660000000001 4516.0199999999995 5975.050000000001 C 4516.04 6064.630000000001 4788.7699999999995 6068.1500000000015 4579.58 6446.990000000001 C 4555.46 6480.860000000001 4527.8099999999995 6513.110000000001 4499.83 6544.2300000000005 C 4355.75 6704.290000000001 4138.48 6888.76 3890.06 6865.620000000001 C 3776.58 6854.870000000001 3601.52 6779.610000000001 3548.41 6684.360000000001 C 3456.48 6519.84 3455.94 6265.55 3486.7599999999998 6088.250000000001 L 3544.62 6008.000000000001 C 3531.46 6026.150000000001 3547.65 6091.900000000001 3549.3599999999997 6111.870000000001 C 3555.8499999999995 6190.330000000001 3567.72 6268.880000000001 3588.7099999999996 6345.140000000001 C 3610.3299999999995 6424.120000000001 3641.2899999999995 6507.470000000001 3699.6899999999996 6570.990000000002 C 3797.9099999999994 6677.990000000002 3986.4599999999996 6664.6500000000015 4115.45 6614.850000000001 C 4264.97 6557.240000000002 4385.76 6453.710000000001 4482.49 6338.3600000000015 C 4527.8099999999995 6284.340000000001 4564.2 6249.160000000002 4554.05 6179.410000000002 C 4546.79 6130.4000000000015 4527.95 6077.920000000002 4463.87 6074.1500000000015 C 4385.08 6069.270000000001 4437.58 6362.050000000001 4090.8599999999997 6272.260000000001 C 4090.8599999999997 6272.260000000001 4021.0199999999995 6255.970000000001 3988.43 6174.530000000002 C 3954.7599999999998 6090.670000000002 3968.7799999999997 5977.160000000002 4051.71 5919.890000000001 C 4095.07 5889.910000000002 4150.2300000000005 5883.830000000001 4203 5887.190000000001 C 4252.79 5890.280000000002 4324.86 5892.050000000001 4361.24 5854.870000000002 L 4479.48 5694.870000000002 C 4564.839999999999 5766.210000000002 4633.669999999999 5866.130000000002 4743.139999999999 5910.740000000002 C 4786.289999999999 5928.260000000002 4839.8099999999995 5936.490000000002 4886.289999999999 5925.050000000002 C 5079.009999999999 5877.740000000002 4644.629999999999 5532.5300000000025 4588.669999999999 5475.730000000002 C 4223.819999999999 5107.040000000003 4006.2999999999993 4827.040000000003 4075.879999999999 4249.580000000002 C 4096.239999999999 4080.5700000000015 4119.759999999999 3876.710000000002 4121.779999999999 3821.090000000002 C 4256.129999999999 4243.590000000002 3926.8999999999987 4604.790000000002 4425.499999999999 5135.340000000002 L 4425.48 5135.34 Z" transform="matrix(1, 0, 0, 1, -1192.5672785128245, -2449.1089232133163)"/>
  <path class="fil0" d="M 4069.8699999999994 6172.27 C 4069.8699999999994 6172.27 4158.209999999999 6225.160000000001 4243.889999999999 6056.38 C 4243.91 6056.36 4117.759999999999 6054.31 4069.8699999999994 6172.27 Z" transform="matrix(1, 0, 0, 1, -1192.5672785128245, -2449.1089232133163)"/>
  <path class="fil0" d="M3998.4 4585.62c0,0 -38.96,133.22 -15.59,150.69 23.45,17.44 15.59,42.09 15.59,42.09l-54.62 -0.02 0 -210.26 54.62 17.49z" transform="matrix(1, 0, 0, 1, -1192.5672785128245, -2449.1089232133163)"/>
  <path class="fil0" d="M3771.99 5172.56c0,0 -59.49,59.91 10.29,99.91 0,0 -26.61,47.95 -65.04,25.31 -38.67,-22.62 -23.83,-129.28 54.75,-125.22z" transform="matrix(1, 0, 0, 1, -1192.5672785128245, -2449.1089232133163)"/>
  <path class="fil0" d="M4044.74 5407.22l240.97 -138.48c0,0 18.57,121.96 42.69,125.04 24.12,3.05 40.15,-38.2 40.15,-38.2 0.02,0 -67.73,-20.72 -41.25,-124.11l-57.44 -0.04 -240.64 143.81c0,0 -5.69,30.96 15.52,31.97z" transform="matrix(1, 0, 0, 1, -1192.5672785128245, -2449.1089232133163)"/>
  <path class="fil0" d="M4195.33 5131.27l-6.78 11.37c-7.05,5.57 -10.77,8.7 -10.96,9.14 -12.94,15.61 -21.76,32.11 -26.9,49.12 -1.42,5.17 -2.9,9.39 -4.21,12.56 -2.15,5.9 -4.19,9.53 -6.03,10.91 -2.09,-1.35 -4.4,-6.93 -6.7,-17.06 -0.94,-5.76 -2.23,-11.65 -3.25,-17.61 -1.15,-5.32 -3.67,-11.44 -7.93,-18.28 -3.52,-5.8 -7.19,-11.56 -10.78,-17.4 -1.15,-1.57 -4.61,-5.13 -10.56,-10.64l-7.67 -9.89c0,-4.4 0.62,-10.33 1.5,-18.09 1.56,-10.68 3.38,-16.57 5.41,-18.07 6.91,3.72 13.21,9.6 18.76,17.17 3.67,4.91 7.93,12.27 12.81,21.83 5.49,10.83 9.41,17.9 11.85,21.6 6.78,-10.58 13.83,-21.09 20.74,-31.63 12.67,-17.9 21.6,-26.85 27.17,-26.85l1.82 0.61c1.15,3.36 1.69,13.73 1.69,31.19z" transform="matrix(1, 0, 0, 1, -1192.5672785128245, -2449.1089232133163)"/>
  <path class="fil0" d="M4046.16 6435.89c0,5.51 -3.46,10.99 -10.02,16.56 -10.29,8.12 -15.73,12.65 -16.19,13.41 -18.7,22.8 -45.74,37.16 -39.17,64.41 5.17,20.17 -26,32.32 -28.57,-1.36 -0.54,-8.06 -6.24,-24.44 -12.46,-34.47 -5.22,-8.53 -10.5,-16.78 -16,-25.06 -1.42,-2.54 -6.37,-7.76 -15.3,-15.78 -7.26,-6.8 -10.98,-11.52 -10.98,-14.56 0,-6.32 0.88,-7.76 2.3,-19.03 2.11,-15.31 4.55,-24.06 7.59,-26.56 10.23,5.76 19.37,14.15 27.65,25.06 5.15,7.32 11.37,10.78 18.69,24.68 7.93,15.67 13.69,26.19 17.21,31.7 10.04,-15.42 20.26,-30.82 30.36,-46.22 18.22,-26.16 31.5,-31.9 39.77,-31.9l2.36 0.9c1.84,4.84 2.78,12.69 2.78,38.23z" transform="matrix(1, 0, 0, 1, -1192.5672785128245, -2449.1089232133163)"/>
  <path class="fil0" d="M3622.34 5760.51c0,5.67 -3.25,11.04 -10.02,16.59 -10.16,8.26 -15.65,12.71 -16.13,13.46 -18.69,22.85 -45.86,37.24 -39.08,64.31 5.07,20.26 -25.94,32.4 -28.46,-1.15 -0.67,-8.08 -6.51,-24.46 -12.52,-34.72 -5.3,-8.43 -10.71,-16.69 -16,-25.02 -1.42,-2.4 -6.57,-7.49 -15.38,-15.65 -7.24,-6.78 -10.91,-11.52 -10.91,-14.52 0,-6.32 0.75,-7.7 2.09,-19.13 2.11,-15.46 4.74,-24.14 7.87,-26.39 10.08,5.59 19.38,14 27.37,24.96 5.36,7.26 11.58,10.56 18.84,24.72 7.99,15.63 13.67,26.23 17.26,31.57 10.02,-15.4 20.26,-30.8 30.22,-46.22 18.28,-26.04 31.57,-31.88 39.89,-31.88l2.38 0.88c1.77,4.96 2.57,12.73 2.57,38.18z" transform="matrix(1, 0, 0, 1, -1192.5672785128245, -2449.1089232133163)"/>
  <path class="fil0" d="M3696.65 5349.19c0,5.41 -3.32,11.04 -9.96,16.42 -10.3,8.31 -15.71,12.87 -16.11,13.48 -18.76,22.83 -46.01,37.28 -39.1,64.58 5.01,20.03 -25.94,32.22 -28.57,-1.44 -0.62,-8.01 -6.59,-24.43 -12.41,-34.62 -5.42,-8.43 -10.78,-16.76 -16.19,-25.14 -1.37,-2.32 -6.57,-7.49 -15.17,-15.56 -7.39,-6.78 -11.12,-11.52 -11.12,-14.57 0,-6.2 0.81,-7.85 2.3,-19.13 2.09,-15.27 4.61,-24.12 7.8,-26.41 10.24,5.78 19.37,14.09 27.36,24.98 5.22,7.33 11.52,10.75 18.84,24.69 7.93,15.69 13.62,26.25 17.21,31.61 10.08,-15.46 20.18,-30.78 30.28,-46.2 18.28,-26.15 31.63,-31.86 39.89,-31.86l2.59 0.79c1.56,4.92 2.36,12.81 2.36,38.37z" transform="matrix(1, 0, 0, 1, -1192.5672785128245, -2449.1089232133163)"/>
  <path class="fil0" d="M5008.22 6264.72c0,5.61 -3.19,11.12 -9.89,16.57 -10.43,8.26 -15.65,12.91 -16.19,13.41 -18.7,22.89 -45.88,37.33 -39.1,64.66 5.22,20.01 -26.02,32.32 -28.52,-1.5 -0.61,-7.93 -6.57,-24.37 -12.46,-34.59 -5.28,-8.28 -10.58,-16.67 -16.06,-24.98 -1.42,-2.42 -6.37,-7.61 -15.32,-15.69 -7.45,-6.84 -10.96,-11.58 -10.96,-14.57 0,-6.3 0.67,-7.66 2.23,-18.99 2.04,-15.46 4.61,-24.14 7.72,-26.52 10.18,5.63 19.24,14.06 27.39,24.96 5.42,7.35 11.71,10.64 18.97,24.79 7.91,15.67 13.54,26.06 16.92,31.53 10.1,-15.5 20.34,-30.78 30.5,-46.19 18.44,-26.19 31.5,-31.9 39.77,-31.9l2.44 0.92c1.77,4.78 2.44,12.73 2.57,38.08z" transform="matrix(1, 0, 0, 1, -1192.5672785128245, -2449.1089232133163)"/>
  <path class="fil0" d="M 3577.36 5082.83 L 3580.88 5085.14 C 3564.61 5095.410000000001 3552.9 5106.9400000000005 3545.7200000000003 5119.38 C 3538.61 5131.82 3536.44 5144.71 3539.2900000000004 5157.9400000000005 C 3540.8500000000004 5152.27 3544.3000000000006 5147.26 3549.5800000000004 5142.750000000001 C 3554.7300000000005 5138.160000000001 3561.51 5134.510000000001 3569.6300000000006 5131.840000000001 C 3581.2800000000007 5127.9000000000015 3591.5800000000004 5127.330000000001 3601.0600000000004 5129.820000000001 C 3610.6200000000003 5132.51 3617.1200000000003 5137.630000000001 3620.3800000000006 5145.47 C 3624.1100000000006 5154.21 3622.5500000000006 5162.990000000001 3616.1800000000007 5171.88 C 3609.960000000001 5180.62 3599.9200000000005 5187.28 3586.640000000001 5191.76 C 3572.350000000001 5196.63 3559.140000000001 5197.21 3547.270000000001 5193.49 C 3535.290000000001 5189.65 3527.0100000000007 5182.45 3522.420000000001 5171.639999999999 C 3516.530000000001 5157.53 3518.540000000001 5142.639999999999 3528.450000000001 5126.57 C 3538.260000000001 5110.509999999999 3554.5800000000013 5095.94 3577.360000000001 5082.86 L 3577.360000000001 5082.839999999999 L 3577.36 5082.83 Z" transform="matrix(1, 0, 0, 1, -1192.5672785128245, -2449.1089232133163)"/>
  <path class="fil0" d="M 3564.07 5138.16 C 3555.4700000000003 5140.98 3549.38 5145.97 3546.25 5152.8099999999995 C 3542.66 5159.45 3542.66 5166.7699999999995 3545.92 5174.74 C 3548.98 5182.07 3554.1800000000003 5187.11 3561.23 5189.55 C 3568.06 5192.16 3576.13 5191.93 3584.73 5189.05 C 3593.33 5185.99 3599.3 5181.52 3602.61 5175.2 C 3606.15 5169.03 3606.2000000000003 5162.26 3603.04 5154.8099999999995 C 3599.5 5146.879999999999 3594.49 5141.459999999999 3587.39 5138.469999999999 C 3580.1299999999997 5135.449999999999 3572.41 5135.36 3564.08 5138.159999999999 L 3564.07 5138.16 Z" transform="matrix(1, 0, 0, 1, -1192.5672785128245, -2449.1089232133163)"/>
  <path class="fil0" d="M3780.79 4761.83c0,0 -24.31,103.14 13.69,116.8 38.08,13.61 27.17,33.19 0,45.28 -27.15,12.25 -86.91,-89.74 -13.69,-162.07z" transform="matrix(1, 0, 0, 1, -1192.5672785128245, -2449.1089232133163)"/>
  <path class="fil0" d="M3406.03 6171.87c0,0 -24.39,103.14 13.62,116.83 37.94,13.63 27.02,33.07 0,45.2 -27.17,12.27 -86.92,-89.72 -13.62,-162.04z" transform="matrix(1, 0, 0, 1, -1192.5672785128245, -2449.1089232133163)"/>
  <path class="fil0" d="M3369.24 5718.3c0,0 -24.31,102.97 13.61,116.66 38.08,13.59 27.23,33.05 0,45.44 -27.09,12.08 -86.91,-89.97 -13.61,-162.1z" transform="matrix(1, 0, 0, 1, -1192.5672785128245, -2449.1089232133163)"/>
  <path class="fil0" d="M4751.46 6107.86c0,0 -24.41,103.12 13.48,116.68 38,13.69 27.43,33.26 0,45.61 -26.96,12 -86.93,-89.97 -13.48,-162.29z" transform="matrix(1, 0, 0, 1, -1192.5672785128245, -2449.1089232133163)"/>
  <path class="fil0" d="M4714.81 6349.75c0,0 -24.46,103.14 13.56,116.74 38.06,13.57 27.15,33.26 0,45.41 -27.04,12.08 -86.85,-89.78 -13.56,-162.15z" transform="matrix(1, 0, 0, 1, -1192.5672785128245, -2449.1089232133163)"/>
  <path class="fil0" d="M3942.36 5854.87c0,0 -81.23,48.99 -93.96,19.8 -12.73,-29.15 150.88,-123.9 189.69,-65.04 38.67,58.78 -42,122.27 -105.76,126.02 -63.76,3.69 60.43,-52.26 10.02,-80.77z" transform="matrix(1, 0, 0, 1, -1192.5672785128245, -2449.1089232133163)"/>
  <polygon class="fil0" points="4283.13,5872.5 4114.44,5769.3 4229.21,5617.79 4397.97,5720.91 " transform="matrix(1, 0, 0, 1, -1192.5672785128245, -2449.1089232133163)"/>
  <path class="fil0" d="M3726.59 6090.17l12.81 -44.28c0,0 89.97,14.73 64.16,112.23 -25.94,97.48 -29.35,131.58 20.05,142.6 49.31,10.98 5.76,37.64 -20.05,64.28 -25.94,26.43 -52.85,-3.76 -64.16,-15.23 -11.18,-11.5 59.42,-137.02 25.81,-206.69 -33.53,-69.69 -38.62,-52.75 -38.62,-52.91z" transform="matrix(1, 0, 0, 1, -1192.5672785128245, -2449.1089232133163)"/>
  <path class="fil0" d="M4123.09 3850.76c85.92,558.69 239.85,717.68 571.86,1097.91 193.17,221.28 513.33,614.01 556.88,832.83 0,-0.02 105.33,382.27 52.56,505.06 0,0 -120.72,523.89 -1134.74,552.16 0,-0.02 609.5,-179.32 782.87,-410.69 0,0 451.72,-448.35 141.72,-740.95 0,-0.04 -311,-352.41 -509.95,-567.29 -301.61,-325.73 -504.76,-816.26 -461.21,-1269.03z" transform="matrix(1, 0, 0, 1, -1192.5672785128245, -2449.1089232133163)"/>
  <path class="fil0" d="M4474.99 5655.98c0,0 -180.47,-167.24 -363.46,-25.14 0,-0.04 -508.09,395.21 -521.17,406.85 0,0 -295.04,280.56 -407.82,-73.97 0,-0.04 -30.09,-319.39 160.62,-420.85 0,-0.02 -65.04,167.53 -60.84,245.59 0,-0.09 -51.96,328.3 286.44,76.53 0,-0.02 186.37,-126.55 333.78,-263.24 147.41,-136.8 554.64,-316.01 613.5,-58.88 0.02,-0.02 -10.7,81.87 -41.04,113.11z" transform="matrix(1, 0, 0, 1, -1192.5672785128245, -2449.1089232133163)"/>
  <path class="fil0" d="M4121.76 3821.09c0,0 165.9,292.39 -194.84,709.3 0,-0.02 -749.07,623.13 -605.28,935.09 68.17,147.94 418.16,119.81 496.06,31.69 0,-0.04 176.62,-224.16 -40.31,-350.33l0 -101.69c0,0 59.9,59.69 129.93,0.08 0.07,-0.08 42.96,-20.95 0,-69.98 0.07,-0.04 -27.23,-77.12 54.54,-21.05 0,-0.04 53.04,61.36 54.67,0 0,-0.04 -39.02,-31.47 -66.25,-56.07 0,0 -22.56,-86.55 114.36,31.63 0,-0.09 72.69,101.51 -57.78,126.03 0,-0.04 -9.76,108.64 -107.31,108.64 0,-0.12 274.5,360.93 -175.33,514.9 0,-0.02 -584.92,122.61 -471.79,-476.38 0,-0.06 81.9,-371.34 538.1,-763.65 0,-0.02 282.37,-200.52 331.22,-618.22z" transform="matrix(1, 0, 0, 1, -1192.5672785128245, -2449.1089232133163)"/>
</svg>